<svg xmlns="http://www.w3.org/2000/svg" xmlns:xlink="http://www.w3.org/1999/xlink" width="500" zoomAndPan="magnify" viewBox="0 0 375 374.999991" height="500" preserveAspectRatio="xMidYMid meet" version="1.0"><defs><g/><clipPath id="222ec2a6f5"><path d="M 78.277344 172.078125 L 298.222656 172.078125 L 298.222656 197.695312 L 78.277344 197.695312 Z M 78.277344 172.078125 " clip-rule="nonzero"/></clipPath></defs><rect x="-37.5" width="450" fill="#ffffff" y="-37.499999" height="449.999989" fill-opacity="1"/><rect x="-37.5" width="450" fill="#e6e6e6" y="-37.499999" height="449.999989" fill-opacity="1"/><path stroke-linecap="butt" transform="matrix(0.00181951, -0.749998, 0.749998, 0.00181951, 187.12366, 259.034016)" fill="none" stroke-linejoin="miter" d="M -0.000303268 0.501789 L 206.099269 0.501788 " stroke="#ffffff" stroke-width="1" stroke-opacity="1" stroke-miterlimit="4"/><g fill="#ffffff" fill-opacity="1"><g transform="translate(84.931448, 228.61954)"><g><path d="M 59.59375 -83.359375 C 59.59375 -57.5625 22.75 -54.34375 22.75 -46.0625 C 22.75 -40.796875 31.21875 -42.921875 41.453125 -27.640625 C 56 -5.796875 58.578125 0 62.8125 0 L 76.90625 0 L 76.90625 -0.921875 C 66.40625 -0.921875 57.75 -17.21875 49.09375 -30.125 C 40.25 -43.390625 23.671875 -40.796875 23.671875 -46.0625 C 23.671875 -52.046875 68.25 -55.078125 68.25 -83.546875 C 68.25 -86.953125 67.140625 -90.546875 65.484375 -92.109375 L 56.375 -92.109375 C 58.390625 -90.640625 59.59375 -86.765625 59.59375 -83.359375 Z M 2.765625 0 L 27.546875 0 L 27.546875 -0.921875 C 19.625 -0.921875 19.0625 -7.453125 19.0625 -25.609375 L 19.0625 -66.5 C 19.0625 -84.65625 19.625 -91.1875 27.546875 -91.1875 L 27.546875 -92.109375 L 2.765625 -92.109375 L 2.765625 -91.1875 C 10.6875 -91.1875 11.234375 -84.65625 11.234375 -66.5 L 11.234375 -25.609375 C 11.234375 -7.453125 10.6875 -0.921875 2.765625 -0.921875 Z M 2.765625 0 "/></g></g></g><g fill="#ffffff" fill-opacity="1"><g transform="translate(189.742053, 228.61954)"><g><path d="M 2.765625 -92.109375 L 2.765625 -91.1875 C 10.6875 -91.1875 11.234375 -84.65625 11.234375 -66.5 L 11.234375 -25.609375 C 11.234375 -7.453125 10.6875 -0.921875 2.765625 -0.921875 L 2.765625 0 L 27.640625 0 L 27.640625 -0.921875 C 19.71875 -0.921875 12.15625 -7.546875 12.15625 -34.359375 L 12.15625 -46.0625 L 12.25 -85.5625 C 26.25 -55.546875 34.546875 -37.671875 49 -6.71875 L 49.828125 -6.71875 C 61.15625 -37.125 70.46875 -62.453125 80.40625 -89.0625 L 80.40625 -25.609375 C 80.40625 -7.453125 79.859375 -0.921875 71.9375 -0.921875 L 71.9375 0 L 96.8125 0 L 96.8125 -0.921875 C 88.890625 -0.921875 88.328125 -7.453125 88.328125 -25.609375 L 88.328125 -66.5 C 88.328125 -84.65625 88.890625 -91.1875 96.8125 -91.1875 L 96.8125 -92.109375 L 80.59375 -92.109375 L 52.96875 -17.875 L 17.59375 -92.109375 Z M 2.765625 -92.109375 "/></g></g></g><g clip-path="url(#222ec2a6f5)"><path fill="#e6e6e6" d="M 78.277344 172.078125 L 298.21875 172.078125 L 298.21875 197.695312 L 78.277344 197.695312 Z M 78.277344 172.078125 " fill-opacity="1" fill-rule="nonzero"/></g><g fill="#ffffff" fill-opacity="1"><g transform="translate(94.510413, 192.374987)"><g><path d="M 4.8125 -4.78125 L 2.734375 -2.671875 L 2.734375 0 L 1.65625 0 L 1.65625 -10.171875 L 2.734375 -10.171875 L 2.734375 -4.03125 L 8.703125 -10.171875 L 9.9375 -10.171875 L 5.53125 -5.5625 L 10.25 0 L 8.96875 0 Z M 4.8125 -4.78125 "/></g></g></g><g fill="#ffffff" fill-opacity="1"><g transform="translate(109.468464, 192.374987)"><g><path d="M 8.84375 -0.9375 L 8.84375 0 L 1.65625 0 L 1.65625 -10.171875 L 8.625 -10.171875 L 8.625 -9.234375 L 2.734375 -9.234375 L 2.734375 -5.625 L 7.984375 -5.625 L 7.984375 -4.703125 L 2.734375 -4.703125 L 2.734375 -0.9375 Z M 8.84375 -0.9375 "/></g></g></g><g fill="#ffffff" fill-opacity="1"><g transform="translate(123.816694, 192.374987)"><g><path d="M 10.109375 -10.171875 L 5.609375 0 L 4.546875 0 L 0.046875 -10.171875 L 1.203125 -10.171875 L 5.09375 -1.34375 L 9.03125 -10.171875 Z M 10.109375 -10.171875 "/></g></g></g><g fill="#ffffff" fill-opacity="1"><g transform="translate(138.585997, 192.374987)"><g><path d="M 1.65625 -10.171875 L 2.734375 -10.171875 L 2.734375 0 L 1.65625 0 Z M 1.65625 -10.171875 "/></g></g></g><g fill="#ffffff" fill-opacity="1"><g transform="translate(147.605572, 192.374987)"><g><path d="M 10.15625 -10.171875 L 10.15625 0 L 9.265625 0 L 2.734375 -8.25 L 2.734375 0 L 1.65625 0 L 1.65625 -10.171875 L 2.546875 -10.171875 L 9.09375 -1.921875 L 9.09375 -10.171875 Z M 10.15625 -10.171875 "/></g></g></g><g fill="#ffffff" fill-opacity="1"><g transform="translate(164.044614, 192.374987)"><g/></g></g><g fill="#ffffff" fill-opacity="1"><g transform="translate(172.483401, 192.374987)"><g><path d="M 12.21875 -10.171875 L 12.21875 0 L 11.1875 0 L 11.1875 -8.140625 L 7.1875 -1.296875 L 6.6875 -1.296875 L 2.6875 -8.09375 L 2.6875 0 L 1.65625 0 L 1.65625 -10.171875 L 2.546875 -10.171875 L 6.953125 -2.625 L 11.328125 -10.171875 Z M 12.21875 -10.171875 "/></g></g></g><g fill="#ffffff" fill-opacity="1"><g transform="translate(190.984216, 192.374987)"><g><path d="M 8.84375 -0.9375 L 8.84375 0 L 1.65625 0 L 1.65625 -10.171875 L 8.625 -10.171875 L 8.625 -9.234375 L 2.734375 -9.234375 L 2.734375 -5.625 L 7.984375 -5.625 L 7.984375 -4.703125 L 2.734375 -4.703125 L 2.734375 -0.9375 Z M 8.84375 -0.9375 "/></g></g></g><g fill="#ffffff" fill-opacity="1"><g transform="translate(205.33245, 192.374987)"><g><path d="M 10.15625 -10.171875 L 10.15625 0 L 9.265625 0 L 2.734375 -8.25 L 2.734375 0 L 1.65625 0 L 1.65625 -10.171875 L 2.546875 -10.171875 L 9.09375 -1.921875 L 9.09375 -10.171875 Z M 10.15625 -10.171875 "/></g></g></g><g fill="#ffffff" fill-opacity="1"><g transform="translate(221.771498, 192.374987)"><g><path d="M 1.65625 -10.171875 L 5.796875 -10.171875 C 6.867188 -10.171875 7.816406 -9.953125 8.640625 -9.515625 C 9.460938 -9.085938 10.101562 -8.488281 10.5625 -7.71875 C 11.019531 -6.945312 11.25 -6.066406 11.25 -5.078125 C 11.25 -4.097656 11.019531 -3.222656 10.5625 -2.453125 C 10.101562 -1.679688 9.460938 -1.078125 8.640625 -0.640625 C 7.816406 -0.210938 6.867188 0 5.796875 0 L 1.65625 0 Z M 5.734375 -0.9375 C 6.628906 -0.9375 7.410156 -1.109375 8.078125 -1.453125 C 8.742188 -1.804688 9.257812 -2.296875 9.625 -2.921875 C 10 -3.546875 10.1875 -4.265625 10.1875 -5.078125 C 10.1875 -5.898438 10 -6.625 9.625 -7.25 C 9.257812 -7.875 8.742188 -8.359375 8.078125 -8.703125 C 7.410156 -9.054688 6.628906 -9.234375 5.734375 -9.234375 L 2.734375 -9.234375 L 2.734375 -0.9375 Z M 5.734375 -0.9375 "/></g></g></g><g fill="#ffffff" fill-opacity="1"><g transform="translate(238.399305, 192.374987)"><g><path d="M 6.109375 0.09375 C 5.097656 0.09375 4.179688 -0.128906 3.359375 -0.578125 C 2.546875 -1.035156 1.90625 -1.65625 1.4375 -2.4375 C 0.976562 -3.226562 0.75 -4.109375 0.75 -5.078125 C 0.75 -6.054688 0.976562 -6.9375 1.4375 -7.71875 C 1.90625 -8.507812 2.546875 -9.128906 3.359375 -9.578125 C 4.179688 -10.035156 5.097656 -10.265625 6.109375 -10.265625 C 7.109375 -10.265625 8.015625 -10.039062 8.828125 -9.59375 C 9.640625 -9.144531 10.273438 -8.523438 10.734375 -7.734375 C 11.203125 -6.941406 11.4375 -6.054688 11.4375 -5.078125 C 11.4375 -4.109375 11.203125 -3.226562 10.734375 -2.4375 C 10.273438 -1.644531 9.640625 -1.023438 8.828125 -0.578125 C 8.015625 -0.128906 7.109375 0.09375 6.109375 0.09375 Z M 6.109375 -0.875 C 6.910156 -0.875 7.632812 -1.054688 8.28125 -1.421875 C 8.925781 -1.785156 9.429688 -2.285156 9.796875 -2.921875 C 10.171875 -3.566406 10.359375 -4.285156 10.359375 -5.078125 C 10.359375 -5.878906 10.171875 -6.597656 9.796875 -7.234375 C 9.429688 -7.878906 8.925781 -8.382812 8.28125 -8.75 C 7.632812 -9.113281 6.910156 -9.296875 6.109375 -9.296875 C 5.296875 -9.296875 4.5625 -9.113281 3.90625 -8.75 C 3.257812 -8.382812 2.75 -7.878906 2.375 -7.234375 C 2 -6.597656 1.8125 -5.878906 1.8125 -5.078125 C 1.8125 -4.285156 2 -3.566406 2.375 -2.921875 C 2.75 -2.285156 3.257812 -1.785156 3.90625 -1.421875 C 4.5625 -1.054688 5.296875 -0.875 6.109375 -0.875 Z M 6.109375 -0.875 "/></g></g></g><g fill="#ffffff" fill-opacity="1"><g transform="translate(255.215847, 192.374987)"><g><path d="M 9 -0.9375 L 9 0 L 0.65625 0 L 0.65625 -0.734375 L 7.390625 -9.234375 L 0.75 -9.234375 L 0.75 -10.171875 L 8.828125 -10.171875 L 8.828125 -9.4375 L 2.09375 -0.9375 Z M 9 -0.9375 "/></g></g></g><g fill="#ffffff" fill-opacity="1"><g transform="translate(269.302722, 192.374987)"><g><path d="M 8.03125 -2.71875 L 2.375 -2.71875 L 1.140625 0 L 0.03125 0 L 4.671875 -10.171875 L 5.734375 -10.171875 L 10.390625 0 L 9.25 0 Z M 7.640625 -3.59375 L 5.203125 -9.046875 L 2.765625 -3.59375 Z M 7.640625 -3.59375 "/></g></g></g></svg>